<svg xmlns="http://www.w3.org/2000/svg" width="402" height="621" viewBox="0 0 402 621" version="1.1"><path d="M 155 2.351 C 127.596 12.084, 96.685 42.915, 90.492 66.693 C 89.018 72.351, 88.301 98, 89.616 98 C 89.955 98, 92.430 96.387, 95.116 94.415 C 101.204 89.946, 101.194 90.320, 95 98.810 C 90.529 104.938, 90 106.210, 90 110.832 C 90 116.975, 89.597 116.873, 96.481 112.469 C 103.296 108.110, 103.300 108.336, 96.562 117.288 C 88.376 128.164, 89.253 135.746, 98.054 130.197 C 100.499 128.656, 103.175 126.991, 104 126.498 C 105.412 125.654, 104.479 127.035, 96.297 137.907 C 93.121 142.126, 92.419 145.427, 95.547 141.433 C 108.368 125.061, 109.556 121.343, 100 127.500 C 90.231 133.794, 89.759 128.479, 99 116.240 C 102.300 111.870, 105 107.778, 105 107.147 C 105 105.540, 103.478 105.719, 102 107.500 C 101.315 108.325, 100.342 109, 99.837 109 C 99.332 109, 97.630 109.953, 96.055 111.118 C 89.478 115.980, 89.253 109.222, 95.690 100.127 C 98.269 96.482, 100.677 93.275, 101.040 93 C 102.047 92.238, 104.147 88, 103.517 88 C 102.140 88, 93 93.306, 93 94.105 C 93 94.597, 92.379 95, 91.620 95 C 89.808 95, 89.391 75.958, 91.068 69.784 C 91.708 67.428, 92.302 65.050, 92.389 64.500 C 95.560 44.390, 135.423 8.293, 161.500 1.919 C 167.072 0.557, 167.786 0.191, 165 0.125 C 163.075 0.079, 158.575 1.081, 155 2.351 M 187 1.220 C 201.972 3.824, 213.749 5.938, 216 6.425 C 217.375 6.723, 219.850 7.234, 221.500 7.561 C 248.009 12.813, 266.277 25.405, 272.914 43 C 273.640 44.925, 274.822 47.850, 275.540 49.500 C 277.735 54.547, 284.106 80.561, 286.438 94 C 287.249 98.675, 288.633 106.550, 289.514 111.500 C 305.980 204.032, 304.796 224.980, 281.874 246.632 C 273.434 254.604, 255.407 264.969, 247.084 266.633 C 243.071 267.436, 242.939 268.127, 244.008 282.736 C 246.652 318.879, 242.235 337, 230.778 337 C 221.625 337, 225.580 428.003, 235.168 438 C 243.306 446.485, 253.172 458.967, 254.311 462.218 C 255.725 466.255, 253.201 464.289, 249.500 458.470 C 246.087 453.104, 240.859 449.437, 242.363 453.464 C 242.576 454.034, 243.239 454.393, 243.836 454.263 C 245.507 453.898, 255.109 468.964, 254.956 471.710 C 254.931 472.145, 253.983 470.700, 252.849 468.500 C 249.829 462.644, 244.805 454.862, 244.343 455.324 C 244.122 455.544, 245.788 458.926, 248.044 462.839 C 250.300 466.752, 251.855 470.426, 251.499 471.002 C 251.143 471.578, 251.384 471.926, 252.035 471.775 C 252.687 471.624, 254.194 474.061, 255.384 477.191 C 256.575 480.321, 257.927 483.246, 258.389 483.691 C 259.664 484.920, 258.011 476.142, 255.922 470.595 C 253.911 465.257, 254.377 462.245, 256.561 466.455 C 261.212 475.419, 263.415 494.192, 261.025 504.499 C 259.805 509.761, 259.964 509.863, 272.876 512.065 C 351.980 525.562, 383.770 573.778, 330.457 599.402 C 328.281 600.448, 325.289 601.920, 323.808 602.674 C 318.533 605.360, 302.355 610.749, 293.500 612.771 C 274.204 617.177, 270.114 618.002, 267.357 618.044 C 263.436 618.104, 251.889 620.770, 255 620.897 C 274.931 621.713, 324.860 606.348, 341.160 594.382 C 362.860 578.453, 360.021 545.910, 335.645 531.169 C 321.021 522.327, 277.464 509, 263.183 509 C 262.808 509, 262.499 501.913, 262.498 493.250 C 262.495 470.097, 255.055 454.857, 233.596 434.042 C 226.722 427.374, 226.275 340.074, 233.102 337.343 C 243.835 333.048, 246.392 324.127, 245.885 292.750 C 245.500 268.941, 245.500 268.941, 253.628 265.657 C 301.608 246.271, 309.544 221.164, 294.906 135.070 C 277.856 34.792, 272.858 23.715, 239.206 11.631 C 224.435 6.326, 193.844 -0.181, 185.151 0.131 C 181.979 0.246, 182.222 0.388, 187 1.220 M 160.760 7.558 C 155.396 8.858, 149.486 11.451, 146 14.034 C 144.870 14.872, 146.339 15.034, 151.963 14.691 C 163.177 14.008, 165.362 15.844, 168.989 29 C 170.506 34.500, 170.506 34.500, 183.503 35.162 C 196.578 35.827, 211.258 38.895, 220.474 42.887 C 224.448 44.608, 224.448 44.608, 219.474 44.396 C 169.023 42.247, 167.464 42.423, 152.500 51.953 C 148.071 54.773, 147.761 54.999, 143.562 58.463 C 141.947 59.796, 140.190 60.617, 139.658 60.289 C 139.126 59.960, 138.981 60.160, 139.335 60.733 C 139.689 61.306, 137.443 63.941, 134.344 66.589 C 131.245 69.237, 129.200 71.567, 129.799 71.766 C 131.358 72.286, 135.161 70.069, 134.512 69.019 C 134.212 68.535, 134.494 67.813, 135.138 67.415 C 135.869 66.963, 136.041 67.124, 135.595 67.845 C 134.462 69.679, 135.466 69.281, 144.236 64.418 C 161.919 54.613, 181.187 51.621, 202.009 55.448 C 219.087 58.586, 231.115 63.469, 219.250 62.447 C 200.260 60.811, 174.469 61.785, 168.096 64.379 C 156.187 69.225, 132 86.185, 132 89.688 C 132 90.940, 134.989 90.375, 136 88.932 C 136.949 87.578, 156.518 78.178, 162.500 76.203 C 175.622 71.872, 188.378 71.008, 203 73.461 C 215.133 75.497, 232.141 80.044, 227.417 79.989 C 175.823 79.391, 168.859 80.867, 146.961 97.046 C 140.743 101.640, 134.716 107.334, 138 105.512 C 138.877 105.025, 139.159 105.052, 138.679 105.577 C 138.228 106.071, 137.142 106.480, 136.266 106.487 C 135.389 106.494, 134.483 107.063, 134.253 107.750 C 133.698 109.404, 136.058 109.343, 138.527 107.639 C 140.672 106.160, 156.259 98.237, 159.500 96.978 C 170.951 92.533, 183.867 90.639, 197.500 91.406 C 211.119 92.172, 231.148 96.181, 229.521 97.816 C 229.146 98.192, 217.738 98.752, 204.170 99.059 C 179.500 99.619, 179.500 99.619, 168.891 104.391 C 157.624 109.460, 140.464 121.324, 141.642 123.230 C 142.009 123.824, 141.889 124.050, 141.377 123.733 C 140.864 123.416, 139.332 124.011, 137.972 125.056 C 133.546 128.457, 138.007 127.155, 147.906 122.155 C 173.573 109.194, 203.239 106.318, 229 114.294 C 234.233 115.914, 230.354 116.377, 201.613 117.566 C 178.681 118.514, 167.599 122.545, 147.864 137.120 C 136.943 145.185, 135.709 148.132, 145.466 142.847 C 165.552 131.968, 193.225 126.349, 212.941 129.146 C 217.098 129.735, 221.625 130.327, 223 130.460 C 230.152 131.151, 239.205 134, 234.251 134 C 219.863 134, 187.342 137.406, 180.692 139.610 C 165.926 144.503, 143.201 158.124, 146.248 160.255 C 147.038 160.808, 146.667 160.897, 145.245 160.497 C 143.676 160.055, 142.802 160.352, 142.372 161.474 C 141.282 164.313, 142.517 164.097, 150.514 160.056 C 154.822 157.878, 158.719 156.326, 159.174 156.607 C 159.628 156.888, 160 156.724, 160 156.241 C 160 150.650, 207.912 145.420, 227.282 148.897 C 241.162 151.389, 240.023 151.721, 208 154.526 C 183.166 156.701, 143.649 172.769, 147.562 179.101 C 147.860 179.583, 147.478 179.737, 146.712 179.443 C 145.254 178.883, 142.296 181.629, 143.288 182.622 C 143.604 182.937, 145.130 182.549, 146.681 181.760 C 173.535 168.089, 207.966 162.331, 232.350 167.433 C 242.971 169.655, 241.679 170.288, 224 171.523 C 191.960 173.763, 175.810 178.951, 153.258 194.251 C 142.123 201.806, 142.294 202.678, 154 198.053 C 169.242 192.032, 174.878 190, 176.330 190 C 179.734 190, 182.041 222.171, 179.162 229.500 C 177.984 232.500, 177.984 232.500, 180.397 229.804 C 183.788 226.016, 185.227 218.758, 185.910 202 C 186.480 188.002, 186.577 187.489, 188.715 187.185 C 191.857 186.738, 192.314 189.545, 191.740 205.768 C 190.867 230.429, 184.697 241.726, 163.969 256.618 C 158.004 260.903, 157.639 262.338, 162.750 261.408 C 184.099 257.524, 203.871 237.630, 211.044 212.814 C 211.789 210.237, 212.718 208.326, 213.108 208.567 C 213.737 208.956, 213.095 212.158, 210.063 223.739 C 208.427 229.991, 202.170 241.579, 196.555 248.754 C 190.455 256.551, 190.510 256.996, 197.217 254.121 C 206.730 250.043, 218.560 237.677, 224.929 225.153 C 228.035 219.045, 228.694 220.743, 225.918 227.700 C 223.164 234.598, 216.358 245.334, 210.989 251.247 C 206.670 256.004, 207.256 257.046, 212.788 254.449 C 225.610 248.430, 240.382 232.986, 244.934 220.841 C 247.499 214, 248.071 213.283, 247.538 217.577 C 246.488 226.037, 238.528 240.543, 230.170 249.227 C 222.589 257.104, 226.243 256.828, 238.897 248.567 C 249.872 241.403, 256.585 233.738, 262.578 221.528 C 266.187 214.175, 266.659 213.969, 264.930 220.500 C 262.561 229.455, 256.030 240.143, 247.669 248.750 C 242.241 254.336, 242.573 255.329, 248.715 251.879 C 263.768 243.424, 273.537 233.818, 278.505 222.585 C 281.304 216.254, 282.217 215.510, 281.367 220.250 C 280.072 227.473, 273.819 238.212, 266.363 246.016 C 257.693 255.090, 257.330 256.015, 263.906 252.284 C 287.115 239.113, 296.089 221.528, 294.636 192.066 C 293.933 177.812, 294.824 178.980, 282.399 176.027 C 270.146 173.116, 270.031 172.396, 281.775 172.116 C 292.196 171.867, 293.036 171.437, 292.433 166.667 C 291.905 162.495, 291.551 162.270, 280.642 159.140 C 269.191 155.854, 269.287 155, 281.108 155 C 290.733 155, 291.290 154.698, 290.348 149.990 C 289.713 146.814, 286.003 144.275, 280.578 143.304 C 279.522 143.115, 278.172 142.578, 277.578 142.110 C 276.985 141.643, 274.828 140.960, 272.785 140.592 C 265.650 139.306, 267.968 138.129, 277.531 138.181 C 288.577 138.242, 288.344 138.351, 287.441 133.535 C 286.683 129.495, 283.434 127.588, 270.313 123.478 C 262.388 120.996, 263.622 120.323, 274.672 121.098 C 284.857 121.813, 285.005 121.771, 284.985 118.191 C 284.958 113.441, 281.330 110.925, 268.250 106.582 C 261.092 104.206, 261.618 103.758, 271.250 104.028 C 275.788 104.156, 280.063 104.201, 280.750 104.130 C 282.097 103.990, 282.439 99.221, 281.235 97.373 C 280.474 96.206, 265.888 89, 264.287 89 C 263.789 89, 262.509 88.297, 261.441 87.437 C 259.650 85.995, 260.001 85.926, 266 86.549 C 278.592 87.856, 278.527 87.867, 278.287 84.567 C 277.926 79.612, 277.359 79.094, 266.770 74.042 C 255.799 68.808, 256.190 67.886, 268.500 69.963 C 279.944 71.894, 276.981 63.414, 264.016 57.130 C 253.019 51.799, 252.979 51.613, 263 52.500 C 272.423 53.334, 272.178 54.070, 266.389 42.327 C 261.032 31.461, 256.991 26.551, 254.146 27.454 C 252.945 27.835, 252.026 27.510, 251.668 26.577 C 250.190 22.724, 238 17.251, 238 20.440 C 238 21.658, 237.095 21.217, 234.583 18.778 C 230.005 14.332, 218.003 10.959, 219.362 14.500 C 220.081 16.375, 218.384 16.486, 217.300 14.635 C 216.022 12.456, 210.924 10.326, 205.250 9.602 C 199.647 8.886, 199.098 9.381, 201.125 13.316 C 201.940 14.897, 201.269 14.567, 198.695 12.122 C 192.922 6.636, 178.409 4.159, 181.060 9.112 C 182.359 11.540, 182.043 11.498, 176.404 8.500 C 171.125 5.693, 168.984 5.564, 160.760 7.558 M 158.461 9.399 C 150.686 11.835, 149.881 12.936, 155.850 12.970 C 163.262 13.012, 166.988 16.706, 169.515 26.516 C 171.320 33.522, 171.320 33.522, 175.243 33.148 C 184.453 32.270, 207.270 36.484, 220.724 41.548 C 228.765 44.575, 228.371 44.606, 227.650 41 C 226.849 36.996, 228.300 37.167, 229.763 41.250 C 239.136 67.395, 254.598 192.758, 247 181 C 246.467 180.175, 246.017 178.150, 246 176.500 C 245.946 171.236, 245.563 171.108, 232.737 172.065 C 192.399 175.076, 180.467 178.328, 158.750 192.231 C 149.625 198.073, 149.151 198.707, 156.250 195.571 C 162.942 192.616, 177.959 187.625, 178.508 188.174 C 179.475 189.141, 181.999 208.086, 182.082 215 C 182.252 229.161, 184.182 217.693, 184.347 201.541 C 184.500 186.583, 184.500 186.583, 188 185.858 C 192.971 184.829, 193.063 185.105, 193.093 201.122 C 193.144 228.464, 187.329 240.874, 167.500 255.744 C 161.668 260.118, 161.598 260.224, 165 259.562 C 186.701 255.336, 209.772 226.810, 212.702 200.583 C 213.838 190.405, 215.120 192.348, 214.626 203.500 C 213.844 221.135, 207.397 238.364, 197.231 249.987 C 192.500 255.396, 192.500 255.396, 197.932 252.448 C 210.243 245.768, 222.089 230.883, 227.563 215.217 C 231.745 203.249, 233.593 206.790, 229.977 219.841 C 227.362 229.275, 222.402 239.052, 215.972 247.440 C 210.086 255.120, 211.385 254.972, 222.651 246.678 C 235.558 237.176, 244.658 222.559, 247.943 206.055 C 249.522 198.121, 249.696 197.761, 250.340 201.101 C 252.651 213.087, 245.037 234.230, 233.653 247.438 C 228.535 253.377, 228.535 253.377, 233.989 250.438 C 250.980 241.285, 266.394 217.631, 267.125 199.590 C 267.230 197.004, 267.364 197.196, 267.944 200.766 C 270.190 214.563, 263.312 233.738, 251.333 247.079 C 247.500 251.348, 247.500 251.348, 253.500 247.541 C 269.070 237.660, 277.924 225.735, 281.002 210.500 C 282.765 201.772, 283.118 201.051, 284.044 204.277 C 286.821 213.946, 279.433 233.858, 268.677 245.697 C 263.500 251.395, 263.500 251.395, 268.500 248.008 C 284.390 237.246, 292.664 222.655, 293.007 204.796 C 293.528 177.574, 295.033 180.024, 275 175.498 C 266.118 173.491, 266.313 173.428, 265.539 178.592 C 264.611 184.778, 264.237 184.001, 262.572 172.415 C 261.787 166.962, 260.410 157.775, 259.510 152 C 255.804 128.210, 254.886 121.759, 251.985 99.156 C 248.275 70.249, 246.483 57.911, 244.497 47.596 C 243.660 43.249, 243.200 39.467, 243.474 39.192 C 244.014 38.653, 247 45.256, 247 46.989 C 247 48.942, 267.211 53.123, 268.828 51.505 C 269.531 50.802, 261.030 34.390, 258.465 31.500 C 255.803 28.500, 255.803 28.500, 256.450 31.367 C 258.402 40.018, 258.159 40.623, 255.063 34.814 C 249.120 23.662, 237.957 15.884, 240.627 24.755 C 242.864 32.188, 241.632 33.790, 238.709 27.250 C 235.874 20.907, 232.815 17.969, 226.996 15.999 C 220.460 13.786, 220.569 13.725, 222.543 18.449 C 225.003 24.337, 224.014 27.587, 221.310 22.500 C 214.821 10.295, 199.788 5.367, 203.600 16.694 C 206.199 24.415, 205.574 27.582, 202.761 20.943 C 199.291 12.751, 193.149 8, 186.027 8 C 181.954 8, 181.954 8, 183.560 10.452 C 185.774 13.830, 188.079 21.833, 187.025 22.484 C 186.550 22.778, 185.666 21.519, 185.062 19.687 C 181.877 10.038, 170.485 5.632, 158.461 9.399 M 144.559 21.429 C 137.741 23.537, 138.892 25.117, 146.717 24.390 C 154.120 23.702, 157.439 25.765, 160.074 32.694 C 161.242 35.767, 163 35.632, 163 32.468 C 163 22.471, 155.570 18.023, 144.559 21.429 M 168.262 46.008 C 158.656 49.423, 134.585 64.918, 136.269 66.602 C 136.437 66.771, 141.421 64.479, 147.345 61.510 C 169.925 50.191, 193.928 49.513, 222.883 59.376 C 230.266 61.891, 230.266 61.891, 229.642 56.696 C 229.298 53.838, 229.013 50.355, 229.009 48.956 C 229 46.412, 229 46.412, 206.750 45.187 C 178.630 43.639, 174.691 43.723, 168.262 46.008 M 230.520 51.500 C 230.875 53.150, 231.354 56.300, 231.583 58.500 C 232.298 65.357, 236.039 98.294, 236.580 102.500 C 236.863 104.700, 237.524 109.875, 238.049 114 C 239.737 127.266, 240.035 129.354, 241.465 138 C 242.238 142.675, 243.454 150.500, 244.166 155.389 C 245.853 166.964, 246.702 163.182, 245.782 148.193 C 244.670 130.085, 241.227 102.657, 240.009 102.202 C 239.571 102.038, 239.440 101.032, 239.719 99.967 C 240.190 98.165, 238.286 84.069, 236.009 72.500 C 232.970 57.061, 231.649 51.344, 230.810 50 C 230.169 48.973, 230.077 49.446, 230.520 51.500 M 249.376 53.750 C 249.657 54.712, 250.609 58.052, 251.491 61.170 C 253.291 67.531, 252.518 67.170, 267.408 68.602 C 273.673 69.205, 274.255 69.107, 273.658 67.552 C 273.296 66.608, 273 65.167, 273 64.349 C 273 63.435, 268.589 60.764, 261.575 57.430 C 248.787 51.352, 248.665 51.315, 249.376 53.750 M 123.021 65.750 C 123.072 90.109, 127.790 136.797, 133.656 171 C 136.536 187.789, 136.909 189.631, 139.356 199.155 C 144.463 219.032, 145.976 218.184, 142.581 197.346 C 138.960 175.125, 134.123 138.906, 131.450 114 C 130.654 106.575, 129.571 97.350, 129.044 93.500 C 128.517 89.650, 127.323 79.638, 126.391 71.250 C 124.456 53.847, 122.990 51.456, 123.021 65.750 M 248.441 60.500 C 248.690 63.250, 249.587 70.450, 250.433 76.500 C 251.280 82.550, 252.660 93.350, 253.501 100.500 C 254.341 107.650, 255.234 114.426, 255.485 115.558 C 255.736 116.690, 256.210 120.065, 256.539 123.058 C 257.478 131.619, 263.042 165.375, 263.607 165.940 C 263.886 166.220, 264.088 164.435, 264.054 161.974 C 264.021 159.513, 264.028 156.825, 264.071 156 C 264.114 155.175, 263.921 153.375, 263.642 152 C 263.363 150.625, 262.884 146.017, 262.577 141.760 C 261.723 129.893, 260.956 122.934, 259.959 118 C 259.459 115.525, 258.841 110.800, 258.586 107.500 C 258.330 104.200, 257.618 98.897, 257.004 95.716 C 256.389 92.534, 255.981 89.159, 256.097 88.216 C 256.213 87.272, 256.043 85.825, 255.720 85 C 255.033 83.247, 253.060 73.834, 252.471 69.500 C 251.587 63.004, 247.927 54.829, 248.441 60.500 M 169.500 65.346 C 159.561 69.059, 142.233 80.212, 137.955 85.651 C 136.671 87.283, 136.676 87.363, 138 86.336 C 157.898 70.899, 191.206 67.082, 222.853 76.612 C 232.797 79.606, 232.390 79.860, 231.521 71.211 C 230.827 64.303, 230.827 64.303, 216.664 63.655 C 189.011 62.390, 176.180 62.850, 169.500 65.346 M 124.662 76.500 C 125.536 98.481, 129.484 136.641, 133.560 162.500 C 135.430 174.360, 139.979 197.312, 140.578 197.912 C 141.227 198.560, 141.103 197.260, 139.504 186.656 C 137.592 173.969, 133.046 138.348, 128.573 101 C 126.630 84.775, 124.847 69.925, 124.612 68 C 124.377 66.075, 124.400 69.900, 124.662 76.500 M 106.585 69.855 C 105.882 73.702, 106.268 88.373, 107.551 106.500 C 110.168 143.472, 118.636 203.960, 122.671 214.500 C 127.510 227.142, 128.835 228.099, 126.566 217.314 C 125.758 213.473, 124.919 208.075, 124.702 205.318 C 124.484 202.561, 124.065 199.899, 123.771 199.402 C 123.476 198.906, 122.945 196.025, 122.590 193 C 122.235 189.975, 121.254 182.325, 120.409 176 C 119.564 169.675, 118.479 160.675, 117.999 156 C 117.519 151.325, 116.659 144.125, 116.088 140 C 115.516 135.875, 114.797 130.250, 114.489 127.500 C 114.180 124.750, 113.257 116.875, 112.437 110 C 111.617 103.125, 110.483 92.775, 109.917 87 C 107.964 67.081, 107.516 64.772, 106.585 69.855 M 254 70.820 C 254 72.800, 256.334 83.555, 256.891 84.142 C 259.446 86.834, 277 86.044, 277 83.237 C 277 80.512, 276.369 79.999, 268.750 76.528 C 255.659 70.563, 254 69.921, 254 70.820 M 183.500 82.032 C 172.307 83.114, 160.928 88.327, 146.517 98.972 C 137.150 105.891, 137.564 106.219, 148.637 100.645 C 173.671 88.044, 206.568 86.451, 232.409 96.587 C 234.054 97.232, 234.357 83.688, 232.725 82.446 C 231.930 81.840, 189.195 81.481, 183.500 82.032 M 108.610 98 C 109.689 128.248, 118.865 200.024, 122.956 210.215 C 124.280 213.513, 124.190 211.578, 122.499 200.413 C 121.149 191.498, 114.331 137.276, 110.502 105 C 109.686 98.125, 108.826 90.925, 108.591 89 C 108.356 87.075, 108.365 91.125, 108.610 98 M 257.411 90.501 C 257.756 91.876, 258.316 95.026, 258.655 97.501 C 259.272 102, 259.272 102, 263.386 102.007 C 265.649 102.011, 270.468 102.295, 274.096 102.637 C 287.942 103.945, 282.450 97.603, 263.213 90.070 C 256.610 87.485, 256.653 87.481, 257.411 90.501 M 183.500 101.016 C 176.327 102.117, 163.330 107.931, 153.658 114.366 C 141.769 122.277, 141.300 123.679, 152.281 118.477 C 172.927 108.697, 204.700 106.037, 226.988 112.223 C 238.253 115.350, 237.131 115.985, 235.829 107.216 C 234.779 100.138, 209.081 97.093, 183.500 101.016 M 260.480 111.731 C 261.338 119.824, 259.419 118.607, 272.583 119.410 C 284.915 120.163, 288.458 116.358, 279.131 112.378 C 260.780 104.546, 259.715 104.509, 260.480 111.731 M 213.500 118.236 C 180.627 119.287, 173.930 121.100, 154.206 134.289 C 142.041 142.424, 141.658 143.284, 152.531 138.048 C 176.600 126.458, 208.439 123.920, 234.345 131.526 C 239.190 132.949, 239.190 132.949, 238.469 126.724 C 237.297 116.610, 239.621 117.400, 213.500 118.236 M 262.353 127.257 C 262.699 130.141, 262.987 133.512, 262.991 134.750 C 263 136.956, 263.231 137, 274.827 137 C 287.642 137, 291.535 133.211, 282.568 129.464 C 265.172 122.196, 261.699 121.816, 262.353 127.257 M 221 136.098 C 183.658 138.336, 174.327 140.867, 154.469 154.149 C 145.948 159.848, 145.217 161.444, 152.913 157.544 C 174.097 146.809, 210.156 142.954, 234.250 148.848 C 238.512 149.890, 242 150.325, 242 149.814 C 242 142.400, 239.533 135.010, 237.103 135.145 C 235.672 135.224, 228.425 135.653, 221 136.098 M 264.009 141.750 C 264.068 153.598, 264.520 154.011, 277.136 153.748 C 289.592 153.487, 291.042 152.765, 288.174 148.248 C 286.101 144.983, 263.995 139.039, 264.009 141.750 M 101.753 145.019 C 96.061 148.593, 95.269 148.676, 94.706 145.750 C 94.375 144.031, 94.240 144.228, 94.136 146.583 C 93.936 151.113, 94.640 151.206, 100.546 147.427 C 107.876 142.739, 107.941 142.975, 101.572 151.171 C 96.850 157.248, 96 158.978, 96 162.505 C 96 168.218, 96.536 168.412, 102.653 164.913 C 109.266 161.129, 109.288 161.593, 102.885 169.741 C 98.231 175.663, 97.818 176.606, 98.301 180.207 C 99.021 185.575, 99.009 185.572, 105.649 181.858 C 108.867 180.058, 111.017 179.241, 110.426 180.042 C 109.835 180.844, 107.225 184.257, 104.626 187.626 C 100.686 192.732, 100.005 194.231, 100.533 196.626 C 101.777 202.268, 101.651 202.211, 106.946 199.527 C 113.816 196.046, 113.847 196.154, 108.079 203.495 C 103.334 209.532, 103.020 210.273, 103.619 214.017 C 104.432 219.102, 104.693 219.232, 109.519 216.950 C 115.406 214.167, 115.569 214.499, 111.085 220.131 C 106.227 226.232, 106.164 227.152, 109.852 238.062 C 116.837 258.725, 123.835 266.117, 140.528 270.465 C 147.592 272.305, 147.380 272.083, 148.919 279.275 C 150.066 284.637, 149.991 285.386, 147.874 289.760 C 141.407 303.119, 146.273 318.827, 158.858 325.211 C 169.069 330.392, 169.085 330.681, 160.179 349.100 C 144.560 381.404, 148.853 394.949, 180.833 414.266 C 187.844 418.500, 187.844 418.500, 188.270 475.455 C 188.504 506.780, 188.326 531.409, 187.873 530.186 C 187.421 528.963, 186.085 523.808, 184.906 518.731 C 181.677 504.827, 182.970 505.303, 157.500 508.644 C 81.536 518.609, 45.596 548.120, 66.031 583.752 C 75.367 600.032, 129.337 620.997, 161.917 621 C 165.139 621, 163.758 619.734, 160.256 619.477 C 119.026 616.455, 74.851 598.350, 65.901 580.806 C 52.723 554.974, 71.410 531.654, 116.113 518.148 C 132.752 513.121, 181 506.052, 181 508.642 C 181 509.032, 185.857 528.704, 187.075 533.250 C 189.559 542.515, 189.991 535.273, 190.242 480.250 C 190.513 420.621, 190.278 416.538, 186.523 415.595 C 178.354 413.545, 159.017 396.798, 154.829 388.146 C 151.922 382.142, 152.014 367.586, 154.977 364.623 C 155.539 364.061, 156 363.021, 156 362.314 C 156 361.228, 165.091 341.204, 168.054 335.764 C 170.651 330.995, 169.003 328.479, 160.712 324.557 C 147.911 318.501, 142.944 305.034, 148.519 291.500 C 151.376 284.565, 151.558 281.833, 149.544 276.126 C 148.744 273.857, 148.406 271.976, 148.794 271.947 C 149.182 271.918, 144.645 270.291, 138.712 268.330 C 122.576 263, 115.278 254.137, 109.987 233.448 C 107.775 224.801, 107.576 225.439, 114.733 218.210 C 115.980 216.950, 117 215.262, 117 214.460 C 117 212.580, 112.635 212.530, 111.090 214.392 C 108.106 217.987, 105 216.671, 105 211.811 C 105 209.773, 112.654 199.345, 113.905 199.679 C 114.274 199.778, 114.666 198.765, 114.777 197.429 C 115.029 194.379, 114.137 194.390, 107.967 197.517 C 105.235 198.901, 102.971 199.914, 102.936 199.767 C 101.722 194.692, 102.428 192.219, 106.440 187.500 C 114.572 177.933, 114.743 176.124, 107.190 179.595 C 102.569 181.719, 101.703 181.846, 100.444 180.587 C 98.222 178.365, 98.559 177.524, 105.118 168.925 C 112.247 159.579, 112.018 158.307, 103.995 162.680 C 99.164 165.312, 98.060 165.599, 97.580 164.348 C 96.256 160.899, 97.326 158.903, 108.078 144.750 C 111.021 140.875, 108.158 140.997, 101.753 145.019 M 227 154.037 C 188.868 157.270, 184.729 158.107, 169.717 165.620 C 162.858 169.052, 149 177.703, 149 178.552 C 149 179.052, 153.138 177.495, 156.757 175.633 C 177.626 164.900, 223.856 161.088, 243.165 168.509 C 244.907 169.178, 244.889 166.351, 243.094 157 C 242.304 152.885, 241.762 152.785, 227 154.037 M 265.015 163.250 C 265.037 172.039, 265.198 172.177, 274.057 171.028 C 278.151 170.496, 283.785 170.048, 286.577 170.031 C 291.654 170, 291.654 170, 291.203 166.928 C 290.687 163.414, 289.956 163.041, 276.500 159.424 C 264.364 156.162, 264.997 155.951, 265.015 163.250 M 196.784 265.229 C 196.539 265.928, 196.781 274.375, 197.322 284 C 198.432 303.737, 197.381 316.613, 194.018 324.457 C 191.454 330.440, 191.466 331.794, 194.062 329.444 C 195.230 328.387, 195.920 326.803, 195.655 325.788 C 195.397 324.803, 195.577 324.239, 196.055 324.534 C 198.398 325.982, 202.790 312.334, 204.917 297 C 207.272 280.026, 205.565 282, 217.886 282 C 228.681 282, 228.681 282, 229.969 287.750 C 230.678 290.913, 231.875 296.040, 232.629 299.144 C 233.383 302.249, 234.036 309.449, 234.079 315.144 C 234.122 320.840, 234.386 324.935, 234.664 324.244 C 234.943 323.553, 235.659 323.289, 236.255 323.658 C 236.950 324.087, 237.099 323.730, 236.670 322.664 C 236.301 321.749, 235.699 320.251, 235.330 319.336 C 234.885 318.230, 235.042 317.908, 235.801 318.377 C 238.451 320.015, 239.282 293.067, 237.230 272 C 236.550 265.012, 199.062 258.737, 196.784 265.229 M 198.554 286.250 C 199.154 305.754, 198.621 314.974, 196.517 321.500 C 196.136 322.685, 196.499 322.426, 197.408 320.866 C 199.826 316.715, 202.791 304.410, 204.002 293.500 C 205.651 278.652, 204.258 280, 217.944 280 C 230.960 280, 231.217 280.404, 235.413 307.500 C 236.845 316.747, 237.720 314.157, 237.272 302 C 235.791 261.833, 237.539 265, 216.844 265 C 197.901 265, 197.901 265, 198.554 286.250 M 166 282.809 C 166 283.390, 166.930 284.160, 168.066 284.521 C 174.244 286.482, 180.170 294.733, 180.161 301.361 C 180.151 307.725, 175.981 316, 172.784 316 C 172.307 316, 170.923 316.951, 169.708 318.114 C 167.500 320.227, 167.500 320.227, 170 319.501 C 184.415 315.316, 185.395 293.310, 171.543 284.863 C 167.843 282.607, 170.355 282.286, 175.357 284.376 C 192.912 291.711, 185.246 327.172, 167.572 320.389 C 166.707 320.057, 166 320.284, 166 320.893 C 166 322.316, 170.738 322.315, 175.101 320.890 C 178.888 319.653, 186.298 312.442, 186.868 309.439 C 188.572 300.454, 186.697 292.277, 181.700 286.904 C 180.490 285.603, 179.588 284.267, 179.694 283.936 C 179.907 283.277, 180.021 283.299, 171.750 282.387 C 167.978 281.971, 166 282.116, 166 282.809 M 212.099 295 C 212.120 299.125, 211.994 358.975, 211.819 428 C 211.500 553.500, 211.500 553.500, 213.620 553.802 C 217.113 554.301, 219.737 378.715, 217.002 327.500 C 215.519 299.723, 212.004 276.426, 212.099 295 M 212.911 426 C 212.527 543.113, 212.693 554.640, 214.733 552.600 C 217.429 549.905, 216.875 324.782, 214.127 306 C 213.684 302.971, 213.137 356.889, 212.911 426 M 178.667 338.667 C 178.300 339.033, 178 340.146, 178 341.140 C 178 343.467, 173.868 352, 172.742 352 C 172.269 352, 172.130 352.401, 172.432 352.890 C 172.735 353.380, 171.906 355.742, 170.591 358.140 C 162.427 373.026, 162.626 381.770, 171.327 390.437 C 176.615 395.705, 186.793 403, 188.854 403 C 191.687 403, 190.293 340.062, 187.435 338.975 C 184.490 337.856, 179.648 337.685, 178.667 338.667 M 180 340.043 C 180 340.734, 176.985 347.621, 173.300 355.346 C 163.336 376.233, 163.463 381.862, 174.113 391.483 C 178.317 395.281, 186.780 401, 188.196 401 C 188.638 401, 189 387.275, 189 370.500 C 189 340, 189 340, 186.082 340 C 184.477 340, 182.452 339.727, 181.582 339.393 C 180.656 339.038, 180 339.308, 180 340.043 M 162.581 364 C 159.375 370.323, 158.542 381.537, 160.946 386 C 163.012 389.835, 170.050 398, 171.289 398 C 171.896 398, 170.842 396.322, 168.946 394.271 C 167.051 392.221, 166.512 391.390, 167.750 392.426 C 168.988 393.462, 170 393.845, 170 393.277 C 170 392.710, 169.364 391.717, 168.586 391.072 C 163.475 386.830, 161.383 374.083, 164.513 366.258 C 167.265 359.382, 165.794 357.663, 162.581 364 M 227.649 448.758 C 224.231 454.290, 227.921 506.530, 231.750 506.807 C 234.088 506.977, 236 507.467, 236 507.898 C 236 509.631, 247.310 508.196, 248.392 506.325 C 252.336 499.511, 247.850 469.823, 241.997 464 C 241.721 463.725, 239.605 461.011, 237.294 457.968 C 232.072 451.091, 228.384 447.570, 227.649 448.758 M 229 478.378 C 229 506, 229 506, 231.853 506 C 233.423 506, 237.422 506.284, 240.741 506.631 C 253.700 507.985, 251.402 479.427, 236.986 459.982 C 228.418 448.424, 229 447.084, 229 478.378 M 330.500 578.074 C 327.200 579.680, 323.915 580.995, 323.200 580.997 C 322.486 580.999, 320.461 581.748, 318.700 582.662 C 312.676 585.792, 285.710 592.368, 272.500 593.929 C 268.100 594.449, 258.200 595.652, 250.500 596.603 C 237.112 598.257, 189.085 598.946, 174.500 597.694 C 159.966 596.447, 145.828 594.935, 140.500 594.058 C 137.200 593.515, 131.350 592.600, 127.500 592.024 C 123.650 591.448, 119.981 590.788, 119.348 590.558 C 118.714 590.327, 117.929 590.405, 117.602 590.731 C 115.669 592.664, 143.292 599.986, 163.500 602.898 C 184.666 605.947, 232.390 606.871, 249 604.552 C 264.717 602.359, 289.086 597.628, 296.459 595.339 C 313.453 590.064, 333.596 581.080, 335.562 577.899 C 335.916 577.328, 337.171 576.470, 338.352 575.993 C 340.375 575.177, 340.384 575.128, 338.500 575.140 C 337.400 575.147, 333.800 576.467, 330.500 578.074 M 327 581.023 C 323.903 583.072, 300.617 589.988, 288.785 592.372 C 245.272 601.141, 189.669 602.339, 141.582 595.545 C 135.578 594.696, 130.440 594.226, 130.166 594.501 C 129.891 594.775, 129.999 595, 130.406 595 C 130.812 595, 135.987 596.115, 141.905 597.478 C 199.954 610.847, 279.045 605.134, 321.566 584.503 C 326.480 582.118, 330.050 580.137, 329.500 580.099 C 328.950 580.061, 327.825 580.477, 327 581.023" stroke="none" fill="#eee8ab" fill-rule="evenodd"/><path d="M 161.500 1.919 C 135.423 8.293, 95.560 44.390, 92.389 64.500 C 92.302 65.050, 91.708 67.428, 91.068 69.784 C 89.391 75.958, 89.808 95, 91.620 95 C 92.379 95, 93 94.597, 93 94.105 C 93 93.306, 102.140 88, 103.517 88 C 104.147 88, 102.047 92.238, 101.040 93 C 100.677 93.275, 98.269 96.482, 95.690 100.127 C 89.253 109.222, 89.478 115.980, 96.055 111.118 C 97.630 109.953, 99.332 109, 99.837 109 C 100.342 109, 101.315 108.325, 102 107.500 C 103.478 105.719, 105 105.540, 105 107.147 C 105 107.778, 102.300 111.870, 99 116.240 C 89.759 128.479, 90.231 133.794, 100 127.500 C 109.540 121.354, 108.406 124.966, 95.674 141.276 C 91.442 146.697, 95.380 148.978, 101.970 144.924 C 110.177 139.874, 110.566 141.498, 103.426 151 C 97.219 159.261, 96.371 161.197, 97.580 164.348 C 98.060 165.599, 99.164 165.312, 103.995 162.680 C 112.018 158.307, 112.247 159.579, 105.118 168.925 C 98.559 177.524, 98.222 178.365, 100.444 180.587 C 101.703 181.846, 102.569 181.719, 107.190 179.595 C 114.743 176.124, 114.572 177.933, 106.440 187.500 C 102.428 192.219, 101.722 194.692, 102.936 199.767 C 102.971 199.914, 105.235 198.901, 107.967 197.517 C 114.137 194.390, 115.029 194.379, 114.777 197.429 C 114.666 198.765, 114.274 199.778, 113.905 199.679 C 112.654 199.345, 105 209.773, 105 211.811 C 105 216.671, 108.106 217.987, 111.090 214.392 C 112.635 212.530, 117 212.580, 117 214.460 C 117 215.262, 115.980 216.950, 114.733 218.210 C 107.576 225.439, 107.775 224.801, 109.987 233.448 C 115.278 254.137, 122.576 263, 138.712 268.330 C 144.645 270.291, 149.182 271.918, 148.794 271.947 C 148.406 271.976, 148.744 273.857, 149.544 276.126 C 151.558 281.833, 151.376 284.565, 148.519 291.500 C 142.944 305.034, 147.911 318.501, 160.712 324.557 C 169.003 328.479, 170.651 330.995, 168.054 335.764 C 165.091 341.204, 156 361.228, 156 362.314 C 156 363.021, 155.539 364.061, 154.977 364.623 C 144.036 375.564, 165.554 410.332, 186.523 415.595 C 190.278 416.538, 190.513 420.621, 190.242 480.250 C 189.991 535.273, 189.559 542.515, 187.075 533.250 C 185.857 528.704, 181 509.032, 181 508.642 C 181 506.052, 132.752 513.121, 116.113 518.148 C 75.948 530.283, 64 540.912, 64 564.507 C 64 592.947, 92.131 610.134, 152.500 618.576 C 155.250 618.960, 158.850 619.513, 160.500 619.805 C 167.552 621.049, 253.504 620.499, 261.500 619.159 C 289.345 614.489, 312.774 608.291, 323.808 602.674 C 325.289 601.920, 328.281 600.448, 330.457 599.402 C 383.770 573.778, 351.980 525.562, 272.876 512.065 C 259.964 509.863, 259.805 509.761, 261.025 504.499 C 266.079 482.700, 257.901 461.723, 235.057 437.889 C 225.562 427.983, 221.703 337, 230.778 337 C 242.235 337, 246.652 318.879, 244.008 282.736 C 242.939 268.127, 243.071 267.436, 247.084 266.633 C 255.407 264.969, 273.434 254.604, 281.874 246.632 C 304.776 224.999, 305.975 203.955, 289.558 111.750 C 288.701 106.938, 287.317 99.063, 286.482 94.250 C 284.108 80.574, 277.756 54.595, 275.540 49.500 C 274.822 47.850, 273.640 44.925, 272.914 43 C 266.277 25.405, 248.009 12.813, 221.500 7.561 C 219.850 7.234, 217.375 6.723, 216 6.425 C 213.312 5.844, 195.377 2.674, 185.385 1.015 C 176.996 -0.377, 169.777 -0.104, 161.500 1.919 M 160.760 7.558 C 155.396 8.858, 149.486 11.451, 146 14.034 C 144.870 14.872, 146.339 15.034, 151.963 14.691 C 163.177 14.008, 165.362 15.844, 168.989 29 C 170.506 34.500, 170.506 34.500, 183.503 35.162 C 196.578 35.827, 211.258 38.895, 220.474 42.887 C 224.448 44.608, 224.448 44.608, 219.474 44.396 C 169.023 42.247, 167.464 42.423, 152.500 51.953 C 148.071 54.773, 147.761 54.999, 143.562 58.463 C 141.947 59.796, 140.190 60.617, 139.658 60.289 C 139.126 59.960, 138.981 60.160, 139.335 60.733 C 139.689 61.306, 137.443 63.941, 134.344 66.589 C 127.560 72.385, 128.794 73.471, 136.738 68.696 C 159.740 54.872, 178.337 51.098, 202.009 55.448 C 219.087 58.586, 231.115 63.469, 219.250 62.447 C 200.260 60.811, 174.469 61.785, 168.096 64.379 C 156.187 69.225, 132 86.185, 132 89.688 C 132 90.940, 134.989 90.375, 136 88.932 C 136.949 87.578, 156.518 78.178, 162.500 76.203 C 175.622 71.872, 188.378 71.008, 203 73.461 C 215.133 75.497, 232.141 80.044, 227.417 79.989 C 171.856 79.345, 165.651 81.082, 136.539 105.435 C 132.820 108.546, 134.058 110.078, 138.315 107.631 C 161.220 94.459, 176.639 90.232, 197.500 91.406 C 211.119 92.172, 231.148 96.181, 229.521 97.816 C 229.146 98.192, 217.738 98.750, 204.170 99.054 C 173.360 99.747, 166.611 102.098, 144.252 119.924 C 134.099 128.019, 135.049 128.649, 147.745 122.237 C 173.581 109.189, 203.171 106.296, 229 114.294 C 234.233 115.914, 230.354 116.377, 201.613 117.566 C 178.681 118.514, 167.599 122.545, 147.864 137.120 C 136.943 145.185, 135.709 148.132, 145.466 142.847 C 165.552 131.968, 193.225 126.349, 212.941 129.146 C 217.098 129.735, 221.625 130.327, 223 130.460 C 230.152 131.151, 239.205 134, 234.251 134 C 198.433 134, 172.630 139.913, 154.975 152.167 C 144.847 159.196, 142 161.506, 142 162.693 C 142 164.431, 141.629 164.546, 150.528 160.048 C 154.829 157.875, 158.719 156.326, 159.174 156.607 C 159.628 156.888, 160 156.724, 160 156.241 C 160 150.650, 207.912 145.420, 227.282 148.897 C 241.162 151.389, 240.023 151.721, 208 154.526 C 183.709 156.653, 168.005 162.422, 150.369 175.696 C 141.911 182.062, 140.156 185.034, 146.846 181.662 C 173.914 168.020, 208.024 162.343, 232.350 167.433 C 242.971 169.655, 241.679 170.288, 224 171.523 C 191.960 173.763, 175.810 178.951, 153.258 194.251 C 142.123 201.806, 142.294 202.678, 154 198.053 C 169.242 192.032, 174.878 190, 176.330 190 C 179.734 190, 182.041 222.171, 179.162 229.500 C 177.984 232.500, 177.984 232.500, 180.397 229.804 C 183.788 226.016, 185.227 218.758, 185.910 202 C 186.480 188.002, 186.577 187.489, 188.715 187.185 C 191.857 186.738, 192.314 189.545, 191.740 205.768 C 190.867 230.429, 184.697 241.726, 163.969 256.618 C 158.004 260.903, 157.639 262.338, 162.750 261.408 C 184.099 257.524, 203.871 237.630, 211.044 212.814 C 211.789 210.237, 212.718 208.326, 213.108 208.567 C 213.737 208.956, 213.095 212.158, 210.063 223.739 C 208.427 229.991, 202.170 241.579, 196.555 248.754 C 190.455 256.551, 190.510 256.996, 197.217 254.121 C 206.730 250.043, 218.560 237.677, 224.929 225.153 C 228.035 219.045, 228.694 220.743, 225.918 227.700 C 223.164 234.598, 216.358 245.334, 210.989 251.247 C 206.670 256.004, 207.256 257.046, 212.788 254.449 C 225.610 248.430, 240.382 232.986, 244.934 220.841 C 247.499 214, 248.071 213.283, 247.538 217.577 C 246.488 226.037, 238.528 240.543, 230.170 249.227 C 222.589 257.104, 226.243 256.828, 238.897 248.567 C 249.872 241.403, 256.585 233.738, 262.578 221.528 C 266.187 214.175, 266.659 213.969, 264.930 220.500 C 262.561 229.455, 256.030 240.143, 247.669 248.750 C 242.241 254.336, 242.573 255.329, 248.715 251.879 C 263.768 243.424, 273.537 233.818, 278.505 222.585 C 281.304 216.254, 282.217 215.510, 281.367 220.250 C 280.072 227.473, 273.819 238.212, 266.363 246.016 C 257.693 255.090, 257.330 256.015, 263.906 252.284 C 287.115 239.113, 296.089 221.528, 294.636 192.066 C 293.933 177.812, 294.824 178.980, 282.399 176.027 C 270.146 173.116, 270.031 172.396, 281.775 172.116 C 292.196 171.867, 293.036 171.437, 292.433 166.667 C 291.905 162.495, 291.551 162.270, 280.642 159.140 C 269.191 155.854, 269.287 155, 281.108 155 C 290.733 155, 291.290 154.698, 290.348 149.990 C 289.713 146.814, 286.003 144.275, 280.578 143.304 C 279.522 143.115, 278.172 142.578, 277.578 142.110 C 276.985 141.643, 274.828 140.960, 272.785 140.592 C 265.650 139.306, 267.968 138.129, 277.531 138.181 C 288.577 138.242, 288.344 138.351, 287.441 133.535 C 286.683 129.495, 283.434 127.588, 270.313 123.478 C 262.388 120.996, 263.622 120.323, 274.672 121.098 C 284.857 121.813, 285.005 121.771, 284.985 118.191 C 284.958 113.441, 281.330 110.925, 268.250 106.582 C 261.092 104.206, 261.618 103.758, 271.250 104.028 C 275.788 104.156, 280.063 104.201, 280.750 104.130 C 282.097 103.990, 282.439 99.221, 281.235 97.373 C 280.474 96.206, 265.888 89, 264.287 89 C 263.789 89, 262.509 88.297, 261.441 87.437 C 259.650 85.995, 260.001 85.926, 266 86.549 C 278.592 87.856, 278.527 87.867, 278.287 84.567 C 277.926 79.612, 277.359 79.094, 266.770 74.042 C 255.799 68.808, 256.190 67.886, 268.500 69.963 C 279.944 71.894, 276.981 63.414, 264.016 57.130 C 253.019 51.799, 252.979 51.613, 263 52.500 C 272.423 53.334, 272.178 54.070, 266.389 42.327 C 261.032 31.461, 256.991 26.551, 254.146 27.454 C 252.945 27.835, 252.026 27.510, 251.668 26.577 C 250.190 22.724, 238 17.251, 238 20.440 C 238 21.658, 237.095 21.217, 234.583 18.778 C 230.005 14.332, 218.003 10.959, 219.362 14.500 C 220.081 16.375, 218.384 16.486, 217.300 14.635 C 216.022 12.456, 210.924 10.326, 205.250 9.602 C 199.647 8.886, 199.098 9.381, 201.125 13.316 C 201.940 14.897, 201.269 14.567, 198.695 12.122 C 192.922 6.636, 178.409 4.159, 181.060 9.112 C 182.359 11.540, 182.043 11.498, 176.404 8.500 C 171.125 5.693, 168.984 5.564, 160.760 7.558 M 144.559 21.429 C 137.741 23.537, 138.892 25.117, 146.717 24.390 C 154.120 23.702, 157.439 25.765, 160.074 32.694 C 161.242 35.767, 163 35.632, 163 32.468 C 163 22.471, 155.570 18.023, 144.559 21.429 M 230.520 51.500 C 230.875 53.150, 231.354 56.300, 231.583 58.500 C 232.298 65.357, 236.039 98.294, 236.580 102.500 C 236.863 104.700, 237.524 109.875, 238.049 114 C 239.737 127.266, 240.035 129.354, 241.465 138 C 242.238 142.675, 243.454 150.500, 244.166 155.389 C 245.853 166.964, 246.702 163.182, 245.782 148.193 C 244.670 130.085, 241.227 102.657, 240.009 102.202 C 239.571 102.038, 239.440 101.032, 239.719 99.967 C 240.190 98.165, 238.286 84.069, 236.009 72.500 C 232.970 57.061, 231.649 51.344, 230.810 50 C 230.169 48.973, 230.077 49.446, 230.520 51.500 M 123.021 65.750 C 123.072 90.109, 127.790 136.797, 133.656 171 C 136.536 187.789, 136.909 189.631, 139.356 199.155 C 144.463 219.032, 145.976 218.184, 142.581 197.346 C 138.960 175.125, 134.123 138.906, 131.450 114 C 130.654 106.575, 129.571 97.350, 129.044 93.500 C 128.517 89.650, 127.323 79.638, 126.391 71.250 C 124.456 53.847, 122.990 51.456, 123.021 65.750 M 248.441 60.500 C 248.690 63.250, 249.587 70.450, 250.433 76.500 C 251.280 82.550, 252.660 93.350, 253.501 100.500 C 254.341 107.650, 255.234 114.426, 255.485 115.558 C 255.736 116.690, 256.210 120.065, 256.539 123.058 C 257.478 131.619, 263.042 165.375, 263.607 165.940 C 263.886 166.220, 264.088 164.435, 264.054 161.974 C 264.021 159.513, 264.028 156.825, 264.071 156 C 264.114 155.175, 263.921 153.375, 263.642 152 C 263.363 150.625, 262.884 146.017, 262.577 141.760 C 261.723 129.893, 260.956 122.934, 259.959 118 C 259.459 115.525, 258.841 110.800, 258.586 107.500 C 258.330 104.200, 257.618 98.897, 257.004 95.716 C 256.389 92.534, 255.981 89.159, 256.097 88.216 C 256.213 87.272, 256.043 85.825, 255.720 85 C 255.033 83.247, 253.060 73.834, 252.471 69.500 C 251.587 63.004, 247.927 54.829, 248.441 60.500 M 106.585 69.855 C 105.882 73.702, 106.268 88.373, 107.551 106.500 C 110.168 143.472, 118.636 203.960, 122.671 214.500 C 127.510 227.142, 128.835 228.099, 126.566 217.314 C 125.758 213.473, 124.919 208.075, 124.702 205.318 C 124.484 202.561, 124.065 199.899, 123.771 199.402 C 123.476 198.906, 122.945 196.025, 122.590 193 C 122.235 189.975, 121.254 182.325, 120.409 176 C 119.564 169.675, 118.479 160.675, 117.999 156 C 117.519 151.325, 116.659 144.125, 116.088 140 C 115.516 135.875, 114.797 130.250, 114.489 127.500 C 114.180 124.750, 113.257 116.875, 112.437 110 C 111.617 103.125, 110.483 92.775, 109.917 87 C 107.964 67.081, 107.516 64.772, 106.585 69.855 M 196.776 265.250 C 196.535 265.938, 196.781 274.375, 197.322 284 C 198.432 303.737, 197.381 316.613, 194.018 324.457 C 190.098 333.603, 192.912 332.622, 197.858 323.119 C 201.241 316.619, 203.203 309.359, 204.917 297 C 207.272 280.026, 205.565 282, 217.886 282 C 228.681 282, 228.681 282, 229.969 287.750 C 230.678 290.913, 231.875 296.040, 232.629 299.144 C 233.383 302.249, 234.036 309.449, 234.079 315.144 C 234.122 320.840, 234.386 324.935, 234.664 324.244 C 234.943 323.553, 235.517 323.202, 235.940 323.463 C 236.364 323.725, 236.735 322.715, 236.765 321.219 C 236.796 319.724, 237.374 315.807, 238.050 312.515 C 239.220 306.821, 237.824 267.142, 236.371 264.792 C 235.500 263.382, 197.275 263.824, 196.776 265.250 M 166 282.809 C 166 283.390, 166.930 284.160, 168.066 284.521 C 180.913 288.598, 184.621 316, 172.326 316 C 171.597 316, 171 316.374, 171 316.831 C 171 317.288, 169.875 318.264, 168.500 319 C 163.271 321.799, 168.092 323.179, 175.101 320.890 C 178.888 319.653, 186.298 312.442, 186.868 309.439 C 188.572 300.454, 186.697 292.277, 181.700 286.904 C 180.490 285.603, 179.588 284.267, 179.694 283.936 C 179.907 283.277, 180.021 283.299, 171.750 282.387 C 167.978 281.971, 166 282.116, 166 282.809 M 212.099 295 C 212.120 299.125, 211.994 358.975, 211.819 428 C 211.500 553.500, 211.500 553.500, 213.620 553.802 C 217.113 554.301, 219.737 378.715, 217.002 327.500 C 215.519 299.723, 212.004 276.426, 212.099 295 M 178.667 338.667 C 178.300 339.033, 178 340.146, 178 341.140 C 178 343.467, 173.868 352, 172.742 352 C 172.269 352, 172.130 352.401, 172.432 352.890 C 172.735 353.380, 171.906 355.742, 170.591 358.140 C 162.427 373.026, 162.626 381.770, 171.327 390.437 C 176.615 395.705, 186.793 403, 188.854 403 C 191.687 403, 190.293 340.062, 187.435 338.975 C 184.490 337.856, 179.648 337.685, 178.667 338.667 M 162.581 364 C 159.368 370.336, 158.540 381.547, 160.955 386 C 164.842 393.167, 180.627 406.706, 182.690 404.643 C 183.485 403.849, 180.075 400, 178.577 400 C 169.635 400, 160.134 377.204, 164.513 366.258 C 167.265 359.382, 165.794 357.663, 162.581 364 M 238.098 447.183 C 238.740 448.384, 240.711 451.421, 242.478 453.933 C 247.633 461.265, 252.186 469.890, 251.492 471.013 C 251.140 471.583, 251.384 471.926, 252.035 471.775 C 252.687 471.624, 254.194 474.061, 255.384 477.191 C 256.575 480.321, 257.927 483.246, 258.389 483.691 C 259.664 484.920, 258.011 476.142, 255.922 470.595 C 254.905 467.897, 254.355 465.197, 254.697 464.595 C 255.040 463.993, 254.973 463.813, 254.548 464.196 C 254.123 464.578, 251.929 462.103, 249.673 458.696 C 243.759 449.766, 234.610 440.665, 238.098 447.183 M 227.649 448.758 C 224.231 454.290, 227.921 506.530, 231.750 506.807 C 234.088 506.977, 236 507.467, 236 507.898 C 236 509.631, 247.310 508.196, 248.392 506.325 C 252.336 499.511, 247.850 469.823, 241.997 464 C 241.721 463.725, 239.605 461.011, 237.294 457.968 C 232.072 451.091, 228.384 447.570, 227.649 448.758 M 330.500 578.074 C 327.200 579.680, 323.915 580.995, 323.200 580.997 C 322.486 580.999, 320.461 581.748, 318.700 582.662 C 312.676 585.792, 285.710 592.368, 272.500 593.929 C 268.100 594.449, 258.200 595.652, 250.500 596.603 C 237.112 598.257, 189.085 598.946, 174.500 597.694 C 159.966 596.447, 145.828 594.935, 140.500 594.058 C 137.200 593.515, 131.350 592.600, 127.500 592.024 C 123.650 591.448, 119.981 590.788, 119.348 590.558 C 118.714 590.327, 117.929 590.405, 117.602 590.731 C 115.669 592.664, 143.292 599.986, 163.500 602.898 C 184.666 605.947, 232.390 606.871, 249 604.552 C 264.717 602.359, 289.086 597.628, 296.459 595.339 C 313.453 590.064, 333.596 581.080, 335.562 577.899 C 335.916 577.328, 337.171 576.470, 338.352 575.993 C 340.375 575.177, 340.384 575.128, 338.500 575.140 C 337.400 575.147, 333.800 576.467, 330.500 578.074" stroke="none" fill="#ede48c" fill-rule="evenodd"/></svg>