<?xml version="1.0" encoding="UTF-8"?>
<svg id="Layer_2" data-name="Layer 2" xmlns="http://www.w3.org/2000/svg" viewBox="0 0 254.65 126.88">
  <defs>
    <style>
      .cls-1 {
        font-family: Poppins-Bold, Poppins;
        font-size: 51.78px;
        font-weight: 700;
      }

      .cls-1, .cls-2 {
        fill: #fff;
      }

      .cls-3 {
        fill: #efe58b;
      }

      .cls-2 {
        font-family: Poppins-Light, Poppins;
        font-size: 12.29px;
        font-weight: 300;
        letter-spacing: .63em;
      }
    </style>
  </defs>
  <g id="Layer_1-2" data-name="Layer 1">
    <g>
      <path class="cls-3" d="m40.21,103.67c.82-3.61.6-7.3-2.04-11.05-1.31-1.86-2.78-3.5-4.63-5.14v-18.55c2.19-.22,3.59-2.39,3.59-5.62,0,0,0-.01,0-.02h0c0-1.18,0-3.14-.17-5.44h0c-.05-1.17-.1-2.29-.14-3.16.21-.06.41-.13.62-.19,2.4-.8,4.75-1.99,6.73-3.72.5-.43.96-.9,1.4-1.39.42-.48.86-1.06,1.19-1.56.78-1.17,1.2-2.48,1.46-3.77.47-2.6.34-5.17.11-7.69-.24-2.51-.63-4.98-1.03-7.41-.41-2.44-.84-4.84-1.26-7.21-.43-2.38-.86-4.73-1.37-7.04-.53-2.3-1.11-4.59-2.12-6.73-.51-1.07-1.14-2.09-1.98-2.97-.47-.48-.97-.81-1.48-1.1-.51-.28-1.01-.54-1.52-.76-2.04-.89-4.08-1.47-6.08-1.95-2-.47-3.95-.81-5.85-1.01C24.68.07,23.74,0,22.81,0c-.93,0-1.82.03-2.77.2-.89.17-1.75.48-2.51.82-.77.35-1.49.75-2.16,1.16-2.66,1.68-4.64,3.57-6.13,5.25-1.49,1.69-2.44,3.21-2.97,4.34-.27.56-.42,1.02-.53,1.36-.08.3-.12.45-.12.45h0s-.09.51-.09.51c-.03.16-.06.36-.09.59-.03.23-.07.5-.08.81-.09,1.07-.1,2.56,0,4.4l2.87-1.96-2.76,3.71c.05.6.1,1.23.16,1.89l2.99-1.97-2.81,3.76c.06.57.13,1.16.2,1.77l3.01-1.9-2.79,3.71c.07.56.14,1.13.21,1.71l2.98-1.8-2.75,3.63c.07.55.14,1.11.22,1.68l2.93-1.68-2.69,3.53c.07.54.15,1.09.23,1.65l2.86-1.55-2.59,3.37c.08.54.17,1.08.26,1.64l2.73-1.38-2.42,3.12c.1.55.21,1.11.33,1.67l2.49-1.16-2.13,2.72c.12.5.26,1.01.41,1.52.3,1.03.65,2.06,1.13,3.09.24.51.52,1.02.85,1.52.09.12.16.24.27.37.1.12.21.27.3.36l.14.15.07.08.11.11c.13.12.25.22.39.32,1.06.75,2.19,1.1,3.32,1.42.43.11.86.21,1.29.3.15.6.4,1.65.69,2.82-.7.9-1.13,2.08-1.13,3.36,0,1.37.46,2.66,1.31,3.63.73.83,1.66,1.35,2.67,1.51.18.26.37.52.59.76-.17,1.21-.83,2.5-1.52,3.86-1.3,2.55-2.92,5.73-.76,8.85,1.5,2.17,4.06,3.66,6.52,5.1.03.02.06.03.08.05v24.38l-1.54-6.42c-13.71.88-24.09,5.01-24.09,9.98v3.58c0,5.61,13.25,10.16,29.59,10.16s29.59-4.55,29.59-10.16v-3.58c0-4.32-7.87-8.01-18.97-9.48Zm-2.05-9.69c.92,1.47,1.45,3.09,1.69,4.81-.24-.66-.43-1.33-.7-1.98-.35-.88-.8-1.71-1.27-2.53-.78-1.36-1.81-2.56-2.57-3.93,1.01,1.16,2.03,2.32,2.85,3.63Zm-2.26.23c2.14,3.04,2.3,6.03,1.54,9.15-1.27-.12-2.57-.21-3.9-.27v-11.77c.87.92,1.64,1.86,2.37,2.9Zm-.46-30.26c-.17.89-.44,1.66-.83,2.48.23-.79.36-1.53.41-2.34.01-.97-.1-1.95-.3-2.89-.28-1.36-.59-2.7-.9-4.05l-4.76.06c-.17,1.6-.35,3.2-.61,4.79-.19,1.13-.49,2.23-.95,3.27-.34.85-.95,1.59-1.5,2.31.39-.71.79-1.41,1.04-2.18.35-1.08.44-2.18.5-3.3.04-1.62-.04-3.25-.11-4.87h0c-.06-1.32-.13-2.6-.18-3.33h7.93c.03.57.07,1.42.11,2.38.12,1.54.23,3.08.28,4.62.04,1,.05,2.06-.14,3.05Zm-4.39,48.33c-.01.51-.8.49-.79-.01.03-6.15.07-12.29.1-18.44.05-10.01.1-20.02.1-30.02v-5.21c.56,4.41.74,8.88.79,13.32.05,5.13.06,10.27.09,15.4.03,5.06-.02,10.12-.09,15.18-.03,2.23-.08,4.45-.12,6.68-.01.91-.04,1.81-.06,2.72,0,.12,0,.26,0,.38Zm15.54-77.47c-.81-.02-1.61-.02-2.42.03-1.04.07-2.06.19-3.1.32,0-1.14-.03-2.28-.1-3.42.85.18,1.7.37,2.54.59.98.26,1.93.61,2.88.95.07.51.14,1.01.2,1.52Zm-.47-3.42c-.83-.03-1.66-.06-2.49-.03-.89.04-1.78.11-2.67.19-.07-1.1-.16-2.2-.27-3.3,1.76.47,3.49,1,5.2,1.66.08.49.16.98.23,1.47Zm-.55-3.41c-1.64-.08-3.27-.07-4.91.01-.11-1.08-.24-2.17-.37-3.25,1.71.52,3.38,1.09,5.03,1.77.08.49.17.98.25,1.46Zm-.85-4.88s0-.02,0-.03c.09.49.17.99.26,1.49-1.58-.11-3.15-.14-4.73-.12-.14-1.08-.28-2.15-.42-3.22,1.65.57,3.27,1.18,4.88,1.88Zm-.6-3.48c.09.5.18,1,.27,1.5-1.53-.14-3.06-.21-4.59-.24-.14-1.07-.3-2.14-.48-3.21,1.61.62,3.2,1.28,4.78,2.01,0-.02.01-.04.02-.06Zm-.36-1.93c-1.49-.16-2.99-.28-4.49-.36-.19-1.1-.41-2.2-.66-3.29,1.64.69,3.26,1.42,4.86,2.21.1.48.19.96.29,1.44Zm-1.1-4.96c.13.5.26,1,.38,1.51-1.49-.2-2.99-.35-4.49-.47-.28-1.19-.61-2.36-.99-3.52,1.72.8,3.42,1.61,5.1,2.49ZM16.74,4.5c.61-.22,1.27-.43,1.92-.24,1.15.35,1.59,1.86,1.63,2.92-.61-.69-.87-1.93-1.72-2.36-.48-.24-1.11-.12-1.61-.03-.45.08-.9.17-1.36.24,0-.12,1.03-.49,1.14-.53Zm.77,6.76c1.46-1.05,3.04-1.79,4.75-2.3,0,0,0,0,0,0,3.82-.34,7.63.37,11.46.32.15,1.2.3,2.4.44,3.6-.17-.1-.85-.4-.92-.43-.46-.18-.94-.34-1.42-.49-1.08-.34-2.19-.61-3.31-.82-1.9-.36-3.91-.57-5.83-.31-.15.02-.29.05-.43.07-1.52.2-3,.6-4.37,1.3-1.62.77-3.13,1.69-4.62,2.7,1.34-1.31,2.72-2.53,4.25-3.63Zm3.92,22.45c1.29-.65,2.58-1.19,3.97-1.59,0,0,0-.02,0-.03,1.97-.35,3.98-.5,5.97-.66,1.03-.08,2.05-.15,3.08-.23.46-.03.92-.06,1.39-.1.03,0,.49-.06.71-.1,0,.04.01.08.02.12.18,1.15.37,2.3.54,3.45-3.66-1.25-7.76-1.27-11.53-.58-.02,0-.04,0-.06.01-.1,0-.19.02-.29.03-.66.06-1.32.19-1.96.36-2.56.65-4.91,1.74-7.27,2.9,1.74-1.3,3.48-2.62,5.43-3.59-.3.15.31-.15,0,0Zm14.53-2.98c-.45-.14-.91-.28-1.37-.37-1.01-.22-2.02-.39-3.05-.48-1.94-.17-3.92-.14-5.84.15-.28.04-.56.1-.83.15-.09,0-.16,0-.21,0-.64.07-1.27.2-1.89.35-2.56.61-4.91,1.81-7.23,3.01,1.7-1.34,3.42-2.68,5.36-3.68-.07.04-.14.07,0,0,.05-.03.08-.04.09-.04-.01,0-.05.02-.08.04,1.25-.65,2.5-1.18,3.85-1.58,0-.02,0-.04,0-.05,1.14-.21,2.32-.27,3.45-.36,1.93-.15,3.86-.23,5.79-.33.51-.03,1.01-.05,1.52-.09.06,0,.34-.03.48-.08.18,1.16.36,2.33.54,3.49-.18-.07-.48-.12-.56-.15Zm0-3.48c-.92-.34-1.89-.58-2.85-.78-2.31-.48-4.76-.62-7.11-.38-.54.06-1.06.14-1.58.24,0,0,0-.02,0-.03-.05,0-.11.02-.19.03-.7.09-1.39.22-2.08.4-2.5.62-4.82,1.87-7.07,3.1,1.66-1.37,3.35-2.73,5.26-3.75-.06.03-.09.05.03-.02.14-.07.09-.05.03-.01,1.22-.65,2.43-1.18,3.74-1.58,0-.02,0-.04,0-.06,1.12-.2,2.28-.25,3.4-.31,2-.1,4-.15,6-.21.52-.02,1.05-.03,1.57-.06.14,0,.29-.03.37-.07.16,1.17.33,2.33.5,3.49,0,0,0,0,0,0Zm-.65-3.69c-.95-.36-1.94-.62-2.93-.83-2.28-.49-4.65-.66-6.97-.47-.52.04-1.03.12-1.54.22,0,0,0-.02,0-.03,0,0,0,0,0,0-.14.01-.29.04-.43.06-.64.12-1.27.23-1.9.41-2.46.63-4.72,1.93-6.9,3.18,1.63-1.41,3.3-2.78,5.19-3.84-.06.03-.09.05.02-.01.14-.08.09-.05.02-.01,1.23-.68,2.45-1.22,3.78-1.63,0-.02,0-.04,0-.07,1.22-.23,2.55-.21,3.77-.24,2.14-.05,4.27-.01,6.41-.07.27,0,.55,0,.82-.02.1,0,.27,0,.37-.04.14,1.16.29,2.31.44,3.47-.03-.02-.08-.04-.14-.07Zm-1.08-3.85c-1.02-.35-2.07-.63-3.13-.84-2.19-.43-4.44-.63-6.66-.43-.34.03-.68.08-1.01.15,0-.01,0-.03,0-.04-.17.05-.35.08-.42.09-.68.11-1.35.26-2.01.44-2.44.69-4.66,1.98-6.82,3.28,1.6-1.44,3.23-2.84,5.1-3.92-.05.03-.07.04.03-.02.13-.07.1-.05.04-.02,1.25-.71,2.5-1.27,3.87-1.68,0-.02,0-.03,0-.05.38-.04.76-.03,1.13-.1,1.09-.07,2.17-.08,3.26-.08,2.16,0,4.33.11,6.49.07.09,0,.44.02.48-.05.14,1.18.27,2.36.42,3.55-.17-.13-.71-.32-.77-.35Zm.25-3.32c-.37-.22-.83-.36-1.24-.49-1.03-.34-2.07-.62-3.13-.84-2.07-.43-4.28-.67-6.39-.45-.24.02-.48.06-.71.1,0,0,0-.02,0-.03-.17.04-.34.07-.5.08-.64.05-1.3.24-1.91.43-2.47.73-4.71,2.05-6.87,3.43,1.56-1.47,3.18-2.9,5.03-4.01-.05.03-.07.04.03-.02.75-.44,1.49-.88,2.29-1.2.57-.22,1.13-.41,1.71-.57,0-.01,0-.02,0-.03.42-.05.86-.06,1.28-.08,1.2-.06,2.42-.03,3.62.02,1.27.05,2.54.11,3.81.15.55.02,1.11.03,1.66.04.15,0,.84.11,1.02,0,.14,1.18.27,2.36.41,3.55-.01-.02-.04-.05-.1-.08Zm-24.09,16.65c-.64-4.99-1.21-10.01-1.41-15.05-.06-1.59-.08-3.18-.04-4.78.3,4.37.85,8.72,1.39,13.07.62,4.94,1.15,9.91,1.88,14.83.26,1.76.56,3.52,1.06,5.23-1.81-4.16-2.31-8.85-2.88-13.31Zm4.78,5.28c-.51-2.4-.91-4.84-1.25-7.27-.67-4.93-1.24-9.89-1.52-14.86-.1-1.79-.16-3.59-.1-5.38.42,4.22.94,8.43,1.46,12.64.61,4.99,1.17,9.98,1.93,14.95.29,1.89.59,3.79,1.1,5.63-.75-1.84-1.21-3.77-1.62-5.7Zm5.11,14.72c-.34.07-.67.13-1.01.18,2.9-1.56,5.87-4.35,6.64-7.39.62-2.43.63-5,.32-7.96-.51.05-1.02.12-1.52.22.06,1.49.14,2.97.08,4.46-.03.98-.15,2.02-.48,2.94-.25.7-.55,1.34-.88,2,.24-.68.44-1.34.59-2.05.19-.94.17-1.95.07-2.9-.15-1.4-.41-2.78-.66-4.17-2.41.61-4.69,1.62-6.97,2.68,1.42-1,2.82-2.01,4.33-2.87,1.66-.94,3.38-1.69,5.21-2.21,0,0,0-.01,0-.02.11-.02.21-.04.32-.06,1.98-.33,3.98-.58,5.98-.78,1.6-.16,3.23-.23,4.82-.45.12.82.22,1.64.3,2.46.07-.67.1-1.33.11-2,.03-4.88-.65-9.8-1.29-14.63-.58-4.37-1.27-8.82-2.76-12.98.07.54.16,1.08.23,1.63,0,.03,0,.06.01.09-.53-.25-1.08-.47-1.63-.67-2.19-.79-4.52-1.39-6.84-1.59-1.05-.09-2.25-.19-3.33,0-.15-.76-.31-1.46-.49-2.09-.82-2.92-2.74-2.21-4.9-1.77,1.15-.67,2.41-1.27,3.8-1.54.47-.08,1-.13,1.55-.15,1.69.37,2.87,1.6,3.31,3.31-.04-1.3-.52-2.42-1.33-3.28.53.03,1.07.07,1.62.13.19.02.37.05.56.07,1.51.53,2.41,2.02,2.85,3.58-.08-1.13-.37-2.24-.99-3.2-.03-.04-.06-.08-.09-.13.81.13,1.62.29,2.44.47,1.26.63,2.1,1.96,2.48,3.32-.05-1.05-.35-2.07-.88-2.94.76.2,1.53.41,2.3.65,1.11.73,1.8,2.16,2.2,3.36-.1-.97-.35-2-.8-2.88.48.18.95.37,1.42.57.05.02.09.04.14.07,1.2.86,2.01,2.29,2.46,3.68-.1-.95-.36-1.9-.77-2.77.26.18.51.37.7.57.69.72,1.25,1.62,1.71,2.59.32.69.6,1.4.85,2.15-1.51-.23-3.02-.42-4.55-.59-.25-.77-.53-1.53-.84-2.28.1.54.21,1.08.31,1.62.89,4.83,1.38,9.7,2.04,14.56.33,2.48.72,4.96,1.11,7.43.32,1.99.66,3.99.85,6,.06-.59.1-1.19.11-1.79,0-.15,0-.31,0-.46,1.01.18,2.02.36,3.01.6.92.22,1.81.51,2.7.81.21,2.39.3,4.82-.12,7.11-.23,1.15-.61,2.27-1.22,3.18-.36.54-.68.95-1.08,1.41-.39.44-.8.86-1.25,1.24-1.08.94-2.29,1.72-3.59,2.36.38-.29.75-.58,1.11-.9,1.47-1.29,2.71-2.91,3.46-4.73.85-2.05.99-4.22.57-6.39.07,2.02-.27,3.94-1.19,5.74-.81,1.58-2.08,2.96-3.5,4.03-1.07.8-2.21,1.44-3.4,2,.43-.35.85-.71,1.26-1.1,2.84-2.7,4.31-6.81,3.66-10.67.02.85-.01,1.7-.19,2.53-.87,3.99-3.68,7.27-7.33,9.04-.37.18-.74.34-1.11.5.4-.32.78-.67,1.16-1.03,2.93-2.82,4.51-7.26,3.86-11.28.01.88-.04,1.75-.24,2.61-.44,1.95-1.27,3.95-2.55,5.5-.57.69-1.15,1.41-1.86,1.97-.7.55-1.38,1.04-2.14,1.52-.61.38-1.26.7-1.94.97.27-.23.54-.47.79-.72,1.71-1.68,2.96-3.82,3.69-6.09.62-1.9.96-4,.64-6,.1,1.96-.44,3.94-1.23,5.72-.91,2.06-2.29,3.95-4.07,5.34-.95.74-1.96,1.31-3.04,1.74.25-.23.5-.47.73-.72,1.64-1.77,2.77-3.92,3.46-6.22.57-1.93.93-4.08.53-6.08.05,1.54-.35,3.07-.86,4.52-.63,1.79-1.52,3.46-2.68,4.96-1.13,1.46-2.59,2.72-4.28,3.49-.82.38-1.67.66-2.55.86Zm.63,12.29c.84-.26,1.62-.63,2.19-1.33.57-.64.9-1.52.93-2.37.03-.93-.25-1.87-.83-2.6-.6-.75-1.36-1.15-2.26-1.44,2.39-.5,4.22,1.66,4.29,3.89-.08,1.15-.44,2.23-1.32,3.02-.82.73-1.91,1.07-2.99.84Zm-.58,13.7c-1.34-2.07-.36-4.58.92-6.4-.83,1.73-1.8,3.95-.79,5.82.88,1.83,2.73,3.06,4.38,4.13-1.77-.75-3.46-1.91-4.51-3.54Zm.98-.54c-1.16-1.67-.39-3.38.95-6.02.59-1.15,1.18-2.33,1.54-3.57.1.03.21.06.32.08.04.01.08.02.12.03.16.04.32.07.49.1.05,0,.1.02.15.03.22.03.44.06.67.08.03,0,.06,0,.09,0v12.77c-1.76-1.05-3.4-2.17-4.33-3.51Zm22.91,43.35c-4.91,1.05-9.99,1.47-15.01,1.38-3.6-.06-7.21-.32-10.75-.95-2.79-.5-5.49-1.2-8.18-2.1,9.08,1.92,18.35,2.28,27.58,1.51,3.39-.28,6.82-.78,10.12-1.62,3.01-.76,5.91-1.72,8.58-3.32-3.57,2.76-7.96,4.17-12.33,5.11Z"/>
      <text class="cls-1" transform="translate(41.85 79.6)"><tspan x="0" y="0">AIR</tspan></text>
      <g>
        <path class="cls-3" d="m156.44,43.26v24.75c0,3.83-1.08,6.78-3.24,8.85-2.16,2.07-5.07,3.11-8.72,3.11s-6.9-1.09-9.22-3.26c-2.31-2.17-3.47-5.26-3.47-9.27h8.8c0,1.52.31,2.67.93,3.44s1.52,1.17,2.69,1.17c1.07,0,1.9-.34,2.49-1.04.59-.69.88-1.69.88-3v-24.75h8.85Z"/>
        <path class="cls-3" d="m186.21,73.18h-13.57l-2.17,6.42h-9.27l13.15-36.35h10.25l13.15,36.35h-9.37l-2.17-6.42Zm-2.28-6.83l-4.5-13.31-4.45,13.31h8.96Z"/>
        <path class="cls-3" d="m242.9,43.26v36.35h-8.85v-21.8l-8.13,21.8h-7.15l-8.18-21.85v21.85h-8.85v-36.35h10.46l10.2,25.16,10.1-25.16h10.41Z"/>
      </g>
      <text class="cls-2" transform="translate(42.67 92.96)"><tspan x="0" y="0">KARAOKE LOUNGE</tspan></text>
    </g>
  </g>
</svg>